<svg xmlns="http://www.w3.org/2000/svg" width="160" height="200" viewBox="0 0 160 200">
  <defs>
    <linearGradient id="heroTorso" x1="0%" y1="0%" x2="0%" y2="100%">
      <stop offset="0%" stop-color="#284777" />
      <stop offset="100%" stop-color="#1a2d52" />
    </linearGradient>
    <linearGradient id="heroPants" x1="0%" y1="0%" x2="0%" y2="100%">
      <stop offset="0%" stop-color="#3d6fb0" />
      <stop offset="100%" stop-color="#264775" />
    </linearGradient>
  </defs>
  <rect x="18" y="128" width="44" height="64" rx="16" fill="#11192b" />
  <rect x="98" y="128" width="44" height="64" rx="16" fill="#11192b" />
  <rect x="40" y="76" width="80" height="90" rx="32" fill="url(#heroTorso)" />
  <path d="M30 132 Q24 100 36 90 Q46 82 52 110 L52 152" fill="#1a2744" />
  <path d="M130 132 Q136 100 124 90 Q114 82 108 110 L108 152" fill="#1a2744" />
  <rect x="58" y="156" width="44" height="38" rx="12" fill="url(#heroPants)" />
  <ellipse cx="80" cy="62" rx="28" ry="30" fill="#f4d6c1" />
  <path d="M52 48 Q80 22 108 48 Q112 70 100 78 Q90 82 70 82 Q52 80 48 70 Z" fill="#2b1f54" />
  <rect x="48" y="44" width="64" height="18" rx="9" fill="#12192d" opacity="0.9" />
  <ellipse cx="68" cy="66" rx="6" ry="4" fill="#f69393" opacity="0.85" />
  <ellipse cx="92" cy="66" rx="6" ry="4" fill="#f69393" opacity="0.85" />
  <circle cx="63" cy="104" r="8" fill="#ffd66b" opacity="0.45" />
  <circle cx="97" cy="104" r="8" fill="#ffd66b" opacity="0.45" />
</svg>
