<svg xmlns="http://www.w3.org/2000/svg" width="512" height="256" viewBox="0 0 512 256">
  <defs>
    <linearGradient id="staticGlow" x1="0%" y1="0%" x2="100%" y2="0%">
      <stop offset="0%" stop-color="rgba(86, 204, 242, 0.2)" />
      <stop offset="100%" stop-color="rgba(124, 240, 217, 0.1)" />
    </linearGradient>
  </defs>
  <rect x="0" y="0" width="512" height="256" fill="#050a12" />
  <g opacity="0.4">
    <rect x="0" y="0" width="128" height="256" fill="rgba(255,255,255,0.04)" />
    <rect x="128" y="0" width="128" height="256" fill="rgba(255,255,255,0.05)" />
    <rect x="256" y="0" width="128" height="256" fill="rgba(255,255,255,0.04)" />
    <rect x="384" y="0" width="128" height="256" fill="rgba(255,255,255,0.05)" />
  </g>
  <g transform="translate(0,0)">
    <g fill="#0f1928" opacity="0.65">
      <rect x="12" y="24" width="6" height="18" />
      <rect x="40" y="44" width="4" height="12" />
      <rect x="64" y="16" width="8" height="24" />
      <rect x="90" y="60" width="6" height="18" />
      <rect x="18" y="104" width="10" height="12" />
      <rect x="56" y="140" width="6" height="26" />
      <rect x="84" y="168" width="8" height="14" />
      <rect x="34" y="200" width="6" height="22" />
    </g>
    <g fill="rgba(255,255,255,0.2)">
      <rect x="24" y="36" width="10" height="2" />
      <rect x="48" y="72" width="18" height="2" />
      <rect x="72" y="92" width="12" height="2" />
      <rect x="32" y="132" width="18" height="2" />
      <rect x="82" y="148" width="10" height="2" />
      <rect x="24" y="180" width="12" height="2" />
    </g>
    <rect x="0" y="0" width="128" height="256" fill="url(#staticGlow)" opacity="0.15" />
  </g>
  <g transform="translate(128,0)">
    <g fill="#0f1928" opacity="0.65">
      <rect x="16" y="18" width="6" height="24" />
      <rect x="54" y="40" width="8" height="18" />
      <rect x="92" y="14" width="6" height="20" />
      <rect x="30" y="80" width="6" height="24" />
      <rect x="70" y="96" width="10" height="14" />
      <rect x="98" y="108" width="6" height="20" />
      <rect x="44" y="148" width="8" height="18" />
      <rect x="78" y="180" width="6" height="26" />
      <rect x="24" y="202" width="6" height="18" />
    </g>
    <g fill="rgba(255,255,255,0.25)">
      <rect x="20" y="52" width="20" height="2" />
      <rect x="64" y="66" width="10" height="2" />
      <rect x="96" y="88" width="18" height="2" />
      <rect x="24" y="132" width="12" height="2" />
      <rect x="80" y="156" width="16" height="2" />
      <rect x="48" y="196" width="18" height="2" />
    </g>
    <rect x="0" y="0" width="128" height="256" fill="url(#staticGlow)" opacity="0.15" />
  </g>
  <g transform="translate(256,0)">
    <g fill="#0f1928" opacity="0.65">
      <rect x="18" y="20" width="8" height="20" />
      <rect x="40" y="38" width="6" height="26" />
      <rect x="68" y="16" width="6" height="24" />
      <rect x="96" y="28" width="10" height="20" />
      <rect x="30" y="92" width="6" height="28" />
      <rect x="56" y="124" width="6" height="22" />
      <rect x="86" y="138" width="8" height="18" />
      <rect x="42" y="182" width="8" height="26" />
      <rect x="72" y="210" width="6" height="20" />
    </g>
    <g fill="rgba(255,255,255,0.2)">
      <rect x="22" y="54" width="14" height="2" />
      <rect x="58" y="76" width="18" height="2" />
      <rect x="94" y="104" width="12" height="2" />
      <rect x="50" y="148" width="18" height="2" />
      <rect x="88" y="180" width="14" height="2" />
      <rect x="30" y="206" width="12" height="2" />
    </g>
    <rect x="0" y="0" width="128" height="256" fill="url(#staticGlow)" opacity="0.15" />
  </g>
  <g transform="translate(384,0)">
    <g fill="#0f1928" opacity="0.65">
      <rect x="14" y="24" width="6" height="24" />
      <rect x="44" y="18" width="8" height="28" />
      <rect x="82" y="32" width="8" height="20" />
      <rect x="108" y="20" width="6" height="24" />
      <rect x="24" y="88" width="8" height="26" />
      <rect x="54" y="120" width="6" height="20" />
      <rect x="90" y="132" width="10" height="24" />
      <rect x="36" y="172" width="6" height="22" />
      <rect x="68" y="200" width="8" height="20" />
    </g>
    <g fill="rgba(255,255,255,0.22)">
      <rect x="18" y="52" width="20" height="2" />
      <rect x="52" y="66" width="14" height="2" />
      <rect x="88" y="84" width="16" height="2" />
      <rect x="38" y="136" width="12" height="2" />
      <rect x="76" y="162" width="18" height="2" />
      <rect x="52" y="198" width="14" height="2" />
    </g>
    <rect x="0" y="0" width="128" height="256" fill="url(#staticGlow)" opacity="0.15" />
  </g>
</svg>
