<svg xmlns="http://www.w3.org/2000/svg" width="200" height="240" viewBox="0 0 200 240">
  <defs>
    <linearGradient id="heroIdleTorso" x1="0%" y1="0%" x2="0%" y2="100%">
      <stop offset="0%" stop-color="#2b4d85" />
      <stop offset="100%" stop-color="#1a2f59" />
    </linearGradient>
    <linearGradient id="heroIdleSleeve" x1="0%" y1="0%" x2="0%" y2="100%">
      <stop offset="0%" stop-color="#233f6f" />
      <stop offset="100%" stop-color="#152340" />
    </linearGradient>
    <linearGradient id="heroIdleDeskGlow" x1="0%" y1="0%" x2="100%" y2="0%">
      <stop offset="0%" stop-color="#45d2f4" stop-opacity="0.25" />
      <stop offset="100%" stop-color="#7cf0d9" stop-opacity="0.1" />
    </linearGradient>
    <radialGradient id="heroIdleFaceGlow" cx="50%" cy="40%" r="70%">
      <stop offset="0%" stop-color="#ffe5bb" />
      <stop offset="100%" stop-color="#f7cba4" />
    </radialGradient>
  </defs>
  <rect x="6" y="150" width="56" height="78" rx="20" fill="#12192f" opacity="0.7" />
  <rect x="138" y="150" width="56" height="78" rx="20" fill="#12192f" opacity="0.7" />
  <path d="M60 166 Q36 130 50 108 Q66 88 80 122 L82 186" fill="url(#heroIdleSleeve)" />
  <path d="M140 166 Q164 130 150 108 Q134 88 120 122 L118 186" fill="url(#heroIdleSleeve)" />
  <rect x="58" y="94" width="84" height="108" rx="34" fill="url(#heroIdleTorso)" />
  <rect x="82" y="176" width="44" height="48" rx="18" fill="#1f3160" />
  <rect x="70" y="182" width="22" height="46" rx="10" fill="#233c70" opacity="0.7" />
  <rect x="108" y="182" width="22" height="46" rx="10" fill="#233c70" opacity="0.7" />
  <ellipse cx="100" cy="82" rx="34" ry="36" fill="url(#heroIdleFaceGlow)" />
  <path d="M66 66 Q100 26 134 66 Q138 88 126 98 Q114 106 86 104 Q70 100 64 90 Z" fill="#2d1f52" />
  <rect x="64" y="60" width="72" height="22" rx="10" fill="#101627" opacity="0.85" />
  <rect x="58" y="72" width="84" height="10" rx="6" fill="#101627" opacity="0.7" />
  <circle cx="82" cy="80" r="6" fill="#ff9fa6" opacity="0.85" />
  <circle cx="118" cy="80" r="6" fill="#ff9fa6" opacity="0.85" />
  <path d="M80 104 Q100 116 120 104" stroke="#f4d6c1" stroke-width="6" stroke-linecap="round" fill="none" opacity="0.7" />
  <path d="M52 148 Q100 130 148 148" stroke="#38d6ff" stroke-width="6" stroke-linecap="round" opacity="0.18" />
  <path d="M64 160 Q100 152 136 160" stroke="#38d6ff" stroke-width="6" stroke-linecap="round" opacity="0.12" />
  <ellipse cx="100" cy="208" rx="42" ry="18" fill="url(#heroIdleDeskGlow)" />
</svg>
