<svg xmlns="http://www.w3.org/2000/svg" width="200" height="240" viewBox="0 0 200 240">
  <defs>
    <linearGradient id="heroStretchTorso" x1="0%" y1="0%" x2="0%" y2="100%">
      <stop offset="0%" stop-color="#30589d" />
      <stop offset="100%" stop-color="#1b2f56" />
    </linearGradient>
    <linearGradient id="heroStretchSleeve" x1="0%" y1="0%" x2="0%" y2="100%">
      <stop offset="0%" stop-color="#1f3a63" />
      <stop offset="100%" stop-color="#14243f" />
    </linearGradient>
    <radialGradient id="heroStretchFace" cx="48%" cy="35%" r="70%">
      <stop offset="0%" stop-color="#ffe5ba" />
      <stop offset="80%" stop-color="#f7c28d" />
      <stop offset="100%" stop-color="#e3a16a" />
    </radialGradient>
    <linearGradient id="heroStretchGlow" x1="0%" y1="0%" x2="0%" y2="100%">
      <stop offset="0%" stop-color="rgba(124, 240, 217, 0.4)" />
      <stop offset="100%" stop-color="rgba(68, 192, 255, 0.1)" />
    </linearGradient>
  </defs>
  <rect x="4" y="150" width="58" height="78" rx="20" fill="#111a2e" opacity="0.7" />
  <rect x="138" y="150" width="58" height="78" rx="20" fill="#111a2e" opacity="0.7" />
  <rect x="60" y="104" width="80" height="110" rx="34" fill="url(#heroStretchTorso)" />
  <path d="M54 118 Q34 92 44 70 Q52 52 70 74 L90 130" fill="url(#heroStretchSleeve)" />
  <path d="M146 118 Q166 92 156 70 Q148 52 130 74 L110 130" fill="url(#heroStretchSleeve)" />
  <path d="M68 140 L86 60 Q100 34 114 60 L132 140" fill="#263e70" />
  <path d="M84 58 Q100 24 116 58 Q120 90 100 94 Q80 90 84 58" fill="#1c2e54" />
  <ellipse cx="100" cy="78" rx="36" ry="36" fill="url(#heroStretchFace)" />
  <rect x="66" y="56" width="68" height="18" rx="9" fill="#0e1422" opacity="0.9" />
  <circle cx="82" cy="74" r="6" fill="#ffb4b6" opacity="0.85" />
  <circle cx="118" cy="74" r="6" fill="#ffb4b6" opacity="0.85" />
  <path d="M76 96 Q100 116 124 96" stroke="#f7d5b9" stroke-width="6" stroke-linecap="round" fill="none" opacity="0.75" />
  <rect x="70" y="184" width="60" height="54" rx="20" fill="#1f2f54" />
  <rect x="82" y="180" width="36" height="28" rx="12" fill="url(#heroStretchGlow)" opacity="0.85" />
  <ellipse cx="100" cy="214" rx="46" ry="18" fill="rgba(52, 132, 220, 0.22)" />
  <path d="M66 138 Q100 124 134 138" stroke="#62e8ff" stroke-width="6" stroke-linecap="round" opacity="0.25" />
</svg>
