<svg xmlns="http://www.w3.org/2000/svg" width="200" height="240" viewBox="0 0 200 240">
  <defs>
    <linearGradient id="heroLeanTorso" x1="0%" y1="0%" x2="0%" y2="100%">
      <stop offset="0%" stop-color="#25406c" />
      <stop offset="100%" stop-color="#16294c" />
    </linearGradient>
    <linearGradient id="heroLeanSleeve" x1="0%" y1="0%" x2="0%" y2="100%">
      <stop offset="0%" stop-color="#1e3458" />
      <stop offset="100%" stop-color="#101c32" />
    </linearGradient>
    <radialGradient id="heroLeanFace" cx="52%" cy="40%" r="72%">
      <stop offset="0%" stop-color="#f9d8b8" />
      <stop offset="90%" stop-color="#e8b68d" />
      <stop offset="100%" stop-color="#d69d74" />
    </radialGradient>
    <linearGradient id="heroLeanGlow" x1="0%" y1="0%" x2="100%" y2="0%">
      <stop offset="0%" stop-color="rgba(60, 148, 255, 0.3)" />
      <stop offset="100%" stop-color="rgba(124, 240, 217, 0.18)" />
    </linearGradient>
  </defs>
  <g transform="translate(-10, 0)">
    <rect x="18" y="156" width="58" height="74" rx="20" fill="#0f1524" opacity="0.68" />
    <rect x="150" y="162" width="56" height="72" rx="20" fill="#0f1524" opacity="0.68" />
    <rect x="66" y="104" width="86" height="108" rx="36" fill="url(#heroLeanTorso)" transform="rotate(-6 109 158)" />
    <path d="M60 152 Q40 120 58 102 Q74 90 90 126 L94 174" fill="url(#heroLeanSleeve)" />
    <path d="M160 168 Q174 132 150 112 Q138 102 118 134 L112 182" fill="url(#heroLeanSleeve)" />
    <rect x="92" y="186" width="48" height="46" rx="18" fill="#1b2948" />
    <ellipse cx="120" cy="92" rx="36" ry="34" fill="url(#heroLeanFace)" transform="rotate(-6 120 92)" />
    <path d="M90 80 Q120 42 150 78 Q154 96 142 106 Q126 116 102 110 Q88 106 86 94 Z" fill="#241b3f" />
    <rect x="90" y="78" width="68" height="18" rx="9" fill="#0d101d" opacity="0.85" />
    <circle cx="110" cy="92" r="6" fill="#ff9fa6" opacity="0.82" />
    <circle cx="140" cy="90" r="6" fill="#ff9fa6" opacity="0.82" />
    <path d="M104 112 Q122 122 142 108" stroke="#f0cbaa" stroke-width="6" stroke-linecap="round" fill="none" opacity="0.75" />
    <path d="M82 154 Q132 144 170 162" stroke="#55d8ff" stroke-width="6" stroke-linecap="round" opacity="0.16" />
    <rect x="86" y="192" width="64" height="24" rx="12" fill="url(#heroLeanGlow)" />
    <ellipse cx="118" cy="216" rx="54" ry="20" fill="rgba(40, 96, 184, 0.22)" />
  </g>
</svg>
