<svg xmlns="http://www.w3.org/2000/svg" width="1920" height="1080" viewBox="0 0 1920 1080">
  <defs>
    <linearGradient id="windowNight" x1="0%" y1="0%" x2="0%" y2="100%">
      <stop offset="0%" stop-color="#0b1930" />
      <stop offset="100%" stop-color="#061120" />
    </linearGradient>
    <linearGradient id="cityGlow" x1="0%" y1="0%" x2="100%" y2="0%">
      <stop offset="0%" stop-color="#1b3a60" />
      <stop offset="100%" stop-color="#0a1b33" />
    </linearGradient>
    <radialGradient id="cityLight" cx="50%" cy="15%" r="70%">
      <stop offset="0%" stop-color="#56ccf2" stop-opacity="0.45" />
      <stop offset="100%" stop-color="#56ccf2" stop-opacity="0" />
    </radialGradient>
  </defs>
  <rect x="0" y="0" width="1920" height="1080" fill="url(#windowNight)" />
  <g opacity="0.45">
    <rect x="240" y="200" width="1440" height="640" rx="40" fill="#0f223d" />
    <rect x="280" y="240" width="1360" height="560" rx="32" fill="#061a30" />
  </g>
  <rect x="320" y="280" width="1280" height="480" rx="28" fill="url(#cityGlow)" />
  <g fill="#071b33">
    <rect x="360" y="460" width="60" height="220" />
    <rect x="420" y="420" width="120" height="260" />
    <rect x="540" y="484" width="140" height="196" />
    <rect x="720" y="380" width="180" height="300" />
    <rect x="950" y="460" width="140" height="220" />
    <rect x="1150" y="420" width="200" height="260" />
    <rect x="1380" y="460" width="120" height="220" />
  </g>
  <g fill="#0d274a">
    <rect x="380" y="500" width="44" height="140" />
    <rect x="448" y="440" width="80" height="200" />
    <rect x="760" y="420" width="60" height="240" />
    <rect x="820" y="420" width="60" height="240" />
    <rect x="1000" y="520" width="80" height="140" />
    <rect x="1440" y="520" width="60" height="140" />
  </g>
  <g fill="#ffd166" opacity="0.38">
    <rect x="400" y="540" width="16" height="36" />
    <rect x="456" y="488" width="18" height="44" />
    <rect x="484" y="488" width="18" height="44" />
    <rect x="580" y="540" width="18" height="36" />
    <rect x="760" y="470" width="16" height="36" />
    <rect x="820" y="470" width="16" height="36" />
    <rect x="1160" y="520" width="16" height="36" />
    <rect x="1200" y="520" width="16" height="36" />
    <rect x="1460" y="560" width="16" height="36" />
  </g>
  <circle cx="960" cy="240" r="200" fill="url(#cityLight)" />
  <g opacity="0.12" stroke="#4ce0d2" stroke-width="6">
    <path d="M320 520 L1600 520" />
    <path d="M320 360 L1600 360" />
  </g>
  <g opacity="0.12" stroke="#4ce0d2" stroke-width="6">
    <path d="M520 280 L520 760" />
    <path d="M960 280 L960 760" />
    <path d="M1400 280 L1400 760" />
  </g>
</svg>
