<svg xmlns="http://www.w3.org/2000/svg" width="200" height="180" viewBox="0 0 200 180">
  <defs>
    <linearGradient id="noteBase" x1="0%" y1="0%" x2="100%" y2="100%">
      <stop offset="0%" stop-color="#ffe27a" />
      <stop offset="100%" stop-color="#f5c85c" />
    </linearGradient>
    <linearGradient id="noteShadow" x1="0%" y1="0%" x2="0%" y2="100%">
      <stop offset="0%" stop-color="rgba(0,0,0,0.18)" />
      <stop offset="100%" stop-color="rgba(0,0,0,0.02)" />
    </linearGradient>
    <linearGradient id="noteAccent" x1="0%" y1="0%" x2="100%" y2="0%">
      <stop offset="0%" stop-color="#56ccf2" />
      <stop offset="100%" stop-color="#4ce0d2" />
    </linearGradient>
  </defs>
  <path d="M40 150 Q70 96 92 102 Q116 110 132 60 Q148 16 170 30" fill="none" stroke="rgba(124, 240, 217, 0.25)" stroke-width="10" stroke-linecap="round" stroke-dasharray="18 16" />
  <g transform="translate(18, 20) rotate(-6 64 64)">
    <rect x="0" y="0" width="120" height="120" rx="10" fill="url(#noteBase)" />
    <path d="M0 90 L0 120 L20 120 Z" fill="url(#noteShadow)" />
    <path d="M0 72 Q60 58 120 72" stroke="#1f3154" stroke-width="4" opacity="0.12" fill="none" />
    <path d="M0 92 Q60 78 120 92" stroke="#1f3154" stroke-width="4" opacity="0.12" fill="none" />
    <rect x="10" y="20" width="36" height="12" rx="4" fill="url(#noteAccent)" opacity="0.9" />
    <path d="M20 40 L90 40" stroke="#1f3154" stroke-width="6" stroke-linecap="round" opacity="0.18" />
    <path d="M20 56 L88 56" stroke="#1f3154" stroke-width="6" stroke-linecap="round" opacity="0.18" />
    <path d="M20 80 L104 80" stroke="#1f3154" stroke-width="6" stroke-linecap="round" opacity="0.18" />
  </g>
  <g transform="translate(96, 80) rotate(8 44 44)">
    <rect x="0" y="0" width="88" height="88" rx="8" fill="#fffbcc" />
    <path d="M88 0 L88 28 L64 0 Z" fill="#f7e279" />
    <path d="M12 26 L72 26" stroke="#f0c850" stroke-width="5" stroke-linecap="round" opacity="0.45" />
    <path d="M12 44 L72 44" stroke="#f0c850" stroke-width="5" stroke-linecap="round" opacity="0.45" />
    <path d="M12 62 L72 62" stroke="#f0c850" stroke-width="5" stroke-linecap="round" opacity="0.45" />
    <circle cx="18" cy="12" r="6" fill="#ffd166" />
  </g>
</svg>
